<svg xmlns="http://www.w3.org/2000/svg" shape-rendering="geometricPrecision" text-rendering="geometricPrecision" image-rendering="optimizeQuality" fill-rule="evenodd" clip-rule="evenodd" viewBox="0 0 414 512.37"><path fill-rule="nonzero" d="m337.65.1.43-.01.43.01H414v22.36h-64.74v489.91H326.9V22.46H222.3v489.91h-22.36V297.8c-83.18 12.4-142.22-16.63-173.71-60.78C10.68 215.24 1.9 189.79.28 163.82a141.629 141.629 0 0 1 16.93-76.53C44.63 36.79 105.18-2.23 202.06.1h8.67l.39-.01.43.01h126.1zM199.94 22.46h-1.91c-.65 0-1.29-.05-1.91-.16-83.99-.59-136.04 32.73-159.35 75.65-10.95 20.18-15.59 42.55-14.22 64.47 1.37 21.9 8.76 43.34 21.84 61.67 27.41 38.41 80.14 63.33 155.55 51.12V22.46z"/></svg>