<svg xmlns="http://www.w3.org/2000/svg" width="148" height="30" fill="none" viewBox="0 0 148 30"><path fill="#fff" d="M21.761.458l-4.993 21.428L11.234.458H0v.79h2.288v27.545H0v.79h5.659v-.79H3.37V2.663h.167l7.323 26.92h5.201l6.241-26.795h.167v26.005H20.18v.79h12.691v-.79h-2.289V1.248h2.289v-.79h-11.11zM54.75 16.727c0 8.363-.582 12.4-5.242 12.4-4.868 0-5.367-4.494-5.367-12.317v-2.996c0-8.53.332-12.94 5.367-12.94 4.993 0 5.243 4.244 5.243 12.774v3.079zm-19.14-1.248C35.61 24.633 40.064 30 49.343 30c9.611 0 13.98-5.784 13.98-15.062C63.322 5.492 58.787 0 49.841 0c-9.279 0-14.23 5.908-14.23 15.479zm43.068-.625c2.247 0 2.83 1.54 2.83 4.494v3.038c0 5.866 1.539 7.614 6.782 7.614 3.87 0 5.034-1.207 5.658-5.95l-.707-.083c-.541 3.245-1.165 3.578-1.914 3.578-1.165 0-1.29-.957-1.29-3.662v-2.205c0-4.826-1.54-6.574-6.033-7.157v-.124c4.41-.375 7.073-1.873 7.073-6.949 0-6.075-4.16-6.99-12.857-6.99H65.654v.79h2.705v27.545h-2.705v.79h13.523v-.79h-2.704V14.854h2.205zM76.473 1.248h1.373c2.912 0 4.618.75 4.618 5.41v1.206c0 4.494-1.58 6.2-4.66 6.2h-1.331V1.248zm19.215-.79v.915h2.455V28.67h-2.455v.915h22.844l.333-9.07h-.833c-1.248 4.535-4.91 8.155-10.194 8.155h-1.581V15.312h.999c2.912 0 4.493 1.623 5.492 5.784h.707V8.779h-.624c-.707 3.163-2.455 5.451-5.159 5.451h-1.415V1.373h1.456c5.035 0 6.991 1.872 9.279 7.323h.749l-.416-8.238H95.688zm49.641.79h2.288v-.79h-5.7v.79h2.288v20.097L133.304.458H121.82v.79h2.288v27.545h-2.288v.79h5.7v-.79h-2.288V2.663l14.271 26.92h5.826V1.249z"/><path fill="#BFABCD" d="M45.77 15.104c0 1.664.915 3.578 3.703 3.578 2.33 0 3.578-1.498 3.578-3.703 0-2.455-1.54-3.537-3.703-3.537-2.33 0-3.578 1.623-3.578 3.662z"/></svg>