<svg width="284" height="58" viewBox="0 0 284 58" fill="none" xmlns="http://www.w3.org/2000/svg"><path d="M41.84.88l-9.6 41.2L21.6.88H0V2.4h4.4v52.96H0v1.52h10.88v-1.52h-4.4V5.12h.32l14.08 51.76h10l12-51.52h.32v50h-4.4v1.52h24.4v-1.52h-4.4V2.4h4.4V.88H41.84zM105.268 32.16c0 16.08-1.121 23.84-10.08 23.84-9.36 0-10.32-8.64-10.32-23.68v-5.76c0-16.4.64-24.88 10.32-24.88 9.599 0 10.08 8.16 10.08 24.56v5.92zm-36.8-2.4c0 17.6 8.56 27.92 26.4 27.92 18.48 0 26.879-11.12 26.879-28.96 0-18.16-8.719-28.72-25.92-28.72-17.84 0-27.36 11.36-27.36 29.76zM151.271 28.56c4.32 0 5.44 2.96 5.44 8.64v5.84c0 11.28 2.96 14.64 13.04 14.64 7.44 0 9.68-2.32 10.88-11.44l-1.36-.16c-1.04 6.24-2.24 6.88-3.68 6.88-2.24 0-2.48-1.84-2.48-7.04v-4.24c0-9.28-2.96-12.64-11.6-13.76v-.24c8.48-.72 13.6-3.6 13.6-13.36 0-11.68-8-13.44-24.72-13.44h-24.16V2.4h5.2v52.96h-5.2v1.52h26v-1.52h-5.2v-26.8h4.24zm-4.24-26.16h2.64c5.6 0 8.88 1.44 8.88 10.4v2.32c0 8.64-3.04 11.92-8.96 11.92h-2.56V2.4zM183.977.88v1.76h4.72v52.48h-4.72v1.76h43.92l.64-17.44h-1.6c-2.4 8.72-9.44 15.68-19.6 15.68h-3.04V29.44h1.92c5.6 0 8.64 3.12 10.56 11.12h1.36V16.88h-1.2c-1.36 6.08-4.72 10.48-9.92 10.48h-2.72V2.64h2.8c9.68 0 13.44 3.6 17.84 14.08h1.44l-.8-15.84h-41.6zM279.419 2.4h4.4V.88h-10.96V2.4h4.4v38.64L256.299.88h-22.08V2.4h4.4v52.96h-4.4v1.52h10.96v-1.52h-4.4V5.12l27.44 51.76h11.2V2.4z" fill="#333"/><path d="M88 29.04c0 3.2 1.76 6.88 7.12 6.88 4.48 0 6.88-2.88 6.88-7.12 0-4.72-2.96-6.8-7.12-6.8C90.4 22 88 25.12 88 29.04z" fill="#C2A18A"/></svg>