<svg xmlns="http://www.w3.org/2000/svg" width="681" height="286" viewBox="0 0 681 286" fill="none">
<g>
<path d="M675 44.8C679 45.9 681.3 50.1 680.2 54L616.9 280C615.8 284 611.6 286.3 607.7 285.2L568 274.1C564 273 561.7 268.8 562.8 264.9L584.9 186.1C586 182.1 583.7 178 579.7 176.9L474.9 147.5C470.9 146.4 468.6 142.2 469.7 138.3L506.9 5.49997C508 1.49997 512.2 -0.800026 516.1 0.299974L555.8 11.4C559.8 12.5 562.1 16.7 561 20.6L538.9 99.4C537.8 103.4 540.1 107.5 544.1 108.6L594.9 122.8C598.9 123.9 603 121.6 604.1 117.6L626.2 38.8C627.3 34.8 631.5 32.5 635.4 33.6L675 44.8Z" fill="#F1DDCF"/>
<path d="M159.2 15.0999C163 13.5999 167.4 15.5999 168.8 19.3999L251.8 238.9C253.3 242.7 251.3 247.1 247.5 248.5L209 263.2C205.2 264.7 200.8 262.7 199.4 258.9L170.5 182.4C169 178.6 164.7 176.6 160.9 178.1L58.8998 216.5C55.0998 218 50.6998 216 49.2998 212.2L0.499843 83.0999C-1.00016 79.2999 0.999843 74.9999 4.79984 73.4999L43.2998 58.8999C47.0998 57.3999 51.4998 59.3999 52.8998 63.1999L81.7998 139.7C83.2998 143.5 87.5998 145.5 91.3998 144L140.7 125.3C144.5 123.8 146.5 119.5 145 115.7L116.1 39.1999C114.6 35.3999 116.6 30.9999 120.4 29.5999L159.2 15.0999Z" fill="#F1DDCF"/>
<path d="M350.3 17C289.6 17 240.3 66.2 240.3 127C240.3 187.7 289.5 237 350.3 237C411.1 237 460.3 187.8 460.3 127C460.3 66.2 411 17 350.3 17ZM409.9 142.7C402.9 169.1 378.9 188.5 350.3 188.5C316.3 188.5 288.7 160.9 288.7 126.9C288.7 92.9 316.3 65.3 350.3 65.3C379.4 65.3 403.8 85.4 410.2 112.6C411.3 117.2 411.9 122 411.9 126.9C411.9 132.4 411.2 137.7 409.9 142.7Z" fill="#F1DDCF"/>
</g>
</svg>